# xmcd CD database file
#
# Track frame offsets:
#	150
#	18880
#	30660
#	47735
#	62197
#	73645
#	97647
#	111957
#	129354
#	142467
#	154950
#	165065
#	183500
#	193380
#	210127
#	222562
#	245260
#	268927
#	285370
#	304417
#	320767
#
# Disc length: 4614 seconds
#
# Revision: 0
# Processed by: cddbd v1.5.1PL0 Copyright (c) Steve Scherf et al.
# Submitted via: CDex 1.51
#
DISCID=38120415
DTITLE=Various Artist - Big City Rhythm vol 1
DYEAR=2005
DGENRE=Blues
TTITLE0=Jonas Göransson - Up for grabs
TTITLE1=Daniel Kordelius - Ain't gonna cry
TTITLE2=Torbjörn Eliasson - Strollin' with Bongo Bob
TTITLE3=Joakim Barchéus - Bring it on home
TTITLE4=Daniel Kordelius - 4th and Beale
TTITLE5=Jonas Göransson - Blues for porky
TTITLE6=Joakim Barchéus - Big boss man
TTITLE7=Torbjörn Eliasson - Bongo Bob's funeral
TTITLE8=Anders Lewén - Breakin' up
TTITLE9=Marino Valle - Faith
TTITLE10=Anders Lewén - The big bite
TTITLE11=Jonas Göransson - I love you so
TTITLE12=Anders Lewén - Rock this morning
TTITLE13=Jonas Göransson - Curly's revenge
TTITLE14=Marino Valle - Stuff you gotta watch
TTITLE15=Anders Karlsson - I feel so fine
TTITLE16=Emil Arvidsson - Calling all blues
TTITLE17=Harmonica Henry - Michelle
TTITLE18=Emil Arvidsson - It's all your fault
TTITLE19=Anders Karlsson - Back in time
TTITLE20=Harmonica Henry - Black night
EXTD=YEAR: 2005
EXTT0=
EXTT1=
EXTT2=
EXTT3=
EXTT4=
EXTT5=
EXTT6=
EXTT7=
EXTT8=
EXTT9=
EXTT10=
EXTT11=
EXTT12=
EXTT13=
EXTT14=
EXTT15=
EXTT16=
EXTT17=
EXTT18=
EXTT19=
EXTT20=
PLAYORDER=
